<svg width="820" height="411" viewBox="0 0 820 411" fill="none" xmlns="http://www.w3.org/2000/svg">
<path d="M54.4267 134.757V176.065C54.4267 180.899 55.4521 184.049 57.5029 185.514C59.7002 186.979 62.4834 187.711 65.8525 187.711C68.3428 187.711 72.0049 187.638 76.8389 187.491C81.8193 187.345 85.042 187.271 86.5068 187.271C101.595 187.271 115.145 189.103 127.156 192.765C139.314 196.28 150.081 201.847 159.456 209.464C168.831 216.935 176.009 227.042 180.989 239.786C186.116 252.53 188.68 267.472 188.68 284.61C188.68 296.915 186.409 308.78 181.868 320.206C177.474 331.485 171.907 340.86 165.169 348.331C158.577 355.655 151.619 361.515 144.295 365.909C137.117 370.304 130.599 372.501 124.739 372.501C123.274 372.501 122.029 372.135 121.004 371.402C120.125 370.523 119.686 369.498 119.686 368.326C119.686 367.301 120.052 366.129 120.784 364.811C121.663 363.492 122.908 361.588 124.52 359.098C126.277 356.607 127.815 354.117 129.134 351.627C139.388 331.998 144.515 312.223 144.515 292.301C144.515 268.277 138.216 250.187 125.618 238.028C113.02 225.724 93.0986 219.571 65.8525 219.571C60.8721 219.571 54.1338 220.23 45.6377 221.549C37.2881 222.721 32.0146 223.307 29.8174 223.307C22.3467 223.307 18.6113 219.205 18.6113 211.002V134.757C18.6113 126.114 24.5439 121.793 36.4092 121.793C42.5615 121.793 47.1025 122.672 50.0322 124.43C52.9619 126.041 54.4267 129.483 54.4267 134.757ZM61.6777 382.828C44.3926 382.828 28.792 376.822 14.876 364.811C10.042 360.123 7.62498 355.582 7.62498 351.188C7.62498 348.258 9.45604 344.815 13.1181 340.86C22.3467 331.632 30.623 327.018 37.9473 327.018C42.7812 327.018 48.1279 329.581 53.9873 334.708C64.9736 343.644 75.5205 348.111 85.6279 348.111C90.9014 348.111 95.9551 347.013 100.789 344.815C105.77 342.472 108.772 341.3 109.798 341.3C113.46 341.3 115.291 343.424 115.291 347.672C115.291 349.43 114.852 351.627 113.973 354.264C113.094 356.9 111.336 359.977 108.699 363.492C106.209 366.861 103.06 369.938 99.251 372.721C95.5889 375.504 90.4619 377.848 83.8701 379.752C77.2783 381.803 69.8808 382.828 61.6777 382.828ZM140.999 108.17H28.0596C24.6904 108.17 22.2734 107.73 20.8086 106.852C19.3437 105.973 18.6113 104.361 18.6113 102.018C18.6113 99.0879 20.2959 94.2539 23.665 87.5156C27.0342 80.7773 30.5498 75.7236 34.2119 72.3545C37.581 69.2783 43.001 67.7402 50.4717 67.7402H164.29C170.589 67.7402 173.738 70.3037 173.738 75.4307C173.738 79.5322 171.907 84.293 168.245 89.7129C164.729 94.9863 160.555 99.6738 155.721 103.775C152.059 106.705 147.151 108.17 140.999 108.17Z" fill="white"/>
<path d="M57.5029 185.514L56.3404 187.141L56.3667 187.16L56.3935 187.178L57.5029 185.514ZM76.8389 187.491L76.7801 185.492L76.7783 185.492L76.8389 187.491ZM127.156 192.765L126.573 194.678L126.587 194.682L126.601 194.686L127.156 192.765ZM159.456 209.464L158.195 211.016L158.202 211.022L158.21 211.028L159.456 209.464ZM180.989 239.786L179.126 240.514L179.13 240.523L179.134 240.533L180.989 239.786ZM181.868 320.206L180.01 319.467L180.005 319.48L181.868 320.206ZM165.169 348.331L163.684 346.992L163.682 346.993L165.169 348.331ZM144.295 365.909L143.266 364.194L143.258 364.199L143.251 364.203L144.295 365.909ZM121.004 371.402L119.59 372.817L119.707 372.934L119.841 373.03L121.004 371.402ZM120.784 364.811L119.12 363.701L119.075 363.768L119.036 363.839L120.784 364.811ZM124.52 359.098L122.886 357.944L122.862 357.977L122.84 358.011L124.52 359.098ZM129.134 351.627L130.901 352.563L130.906 352.553L129.134 351.627ZM125.618 238.028L124.221 239.459L124.229 239.467L125.618 238.028ZM45.6377 221.549L45.9157 223.529L45.93 223.527L45.9444 223.525L45.6377 221.549ZM50.0322 124.43L49.0032 126.145L49.0354 126.164L49.0684 126.182L50.0322 124.43ZM14.876 364.811L13.4837 366.246L13.5253 366.287L13.5691 366.325L14.876 364.811ZM13.1181 340.86L11.7039 339.446L11.6767 339.473L11.6506 339.502L13.1181 340.86ZM53.9873 334.708L52.6703 336.213L52.6974 336.237L52.7253 336.26L53.9873 334.708ZM100.789 344.815L101.617 346.636L101.629 346.631L101.641 346.625L100.789 344.815ZM108.699 363.492L107.099 362.292L107.091 362.303L108.699 363.492ZM99.251 372.721L98.0709 371.106L98.0558 371.117L98.0408 371.128L99.251 372.721ZM83.8701 379.752L83.315 377.831L83.2954 377.836L83.276 377.842L83.8701 379.752ZM34.2119 72.3545L32.8634 70.8775L32.8578 70.8826L34.2119 72.3545ZM168.245 89.7129L166.588 88.5932L166.581 88.6035L168.245 89.7129ZM155.721 103.775L156.97 105.337L156.993 105.319L157.015 105.3L155.721 103.775ZM52.4267 134.757V176.065H56.4267V134.757H52.4267ZM52.4267 176.065C52.4267 180.991 53.435 185.066 56.3404 187.141L58.6654 183.886C57.4693 183.032 56.4267 180.808 56.4267 176.065H52.4267ZM56.3935 187.178C58.9992 188.915 62.1969 189.711 65.8525 189.711V185.711C62.7699 185.711 60.4012 185.042 58.6123 183.85L56.3935 187.178ZM65.8525 189.711C68.3738 189.711 72.0603 189.637 76.8994 189.49L76.7783 185.492C71.9495 185.638 68.3117 185.711 65.8525 185.711V189.711ZM76.8977 189.49C81.8857 189.344 85.0771 189.271 86.5068 189.271V185.271C85.0068 185.271 81.7529 185.346 76.7801 185.492L76.8977 189.49ZM86.5068 189.271C101.436 189.271 114.784 191.083 126.573 194.678L127.739 190.852C115.505 187.122 101.754 185.271 86.5068 185.271V189.271ZM126.601 194.686C138.514 198.131 149.038 203.576 158.195 211.016L160.717 207.912C151.124 200.117 140.115 194.43 127.712 190.843L126.601 194.686ZM158.21 211.028C167.272 218.25 174.256 228.051 179.126 240.514L182.852 239.058C177.762 226.033 170.39 215.62 160.702 207.9L158.21 211.028ZM179.134 240.533C184.145 252.989 186.68 267.666 186.68 284.61H190.68C190.68 267.277 188.088 252.072 182.845 239.04L179.134 240.533ZM186.68 284.61C186.68 296.662 184.457 308.277 180.01 319.467L183.727 320.945C188.361 309.284 190.68 297.168 190.68 284.61H186.68ZM180.005 319.48C175.681 330.578 170.231 339.733 163.684 346.992L166.654 349.671C173.584 341.988 179.267 332.392 183.732 320.932L180.005 319.48ZM163.682 346.993C157.204 354.192 150.396 359.916 143.266 364.194L145.324 367.624C152.842 363.113 159.951 357.119 166.656 349.669L163.682 346.993ZM143.251 364.203C136.257 368.485 130.103 370.501 124.739 370.501V374.501C131.094 374.501 137.977 372.122 145.339 367.615L143.251 364.203ZM124.739 370.501C123.621 370.501 122.8 370.227 122.166 369.775L119.841 373.03C121.259 374.042 122.927 374.501 124.739 374.501V370.501ZM122.418 369.988C121.889 369.459 121.686 368.933 121.686 368.326H117.686C117.686 370.063 118.361 371.588 119.59 372.817L122.418 369.988ZM121.686 368.326C121.686 367.764 121.893 366.933 122.532 365.782L119.036 363.839C118.211 365.325 117.686 366.838 117.686 368.326H121.686ZM122.448 365.92C123.335 364.59 124.586 362.677 126.199 360.184L122.84 358.011C121.231 360.499 119.991 362.394 119.12 363.701L122.448 365.92ZM126.153 360.251C127.956 357.697 129.54 355.134 130.901 352.563L127.366 350.691C126.091 353.1 124.598 355.518 122.886 357.944L126.153 360.251ZM130.906 352.553C141.293 332.671 146.515 312.58 146.515 292.301H142.515C142.515 311.865 137.483 331.325 127.361 350.701L130.906 352.553ZM146.515 292.301C146.515 267.942 140.123 249.248 127.007 236.589L124.229 239.467C136.309 251.125 142.515 268.612 142.515 292.301H146.515ZM127.016 236.598C113.884 223.771 93.343 217.571 65.8525 217.571V221.571C92.8543 221.571 112.157 227.676 124.221 239.459L127.016 236.598ZM65.8525 217.571C60.7218 217.571 53.867 218.248 45.331 219.572L45.9444 223.525C54.4005 222.213 61.0224 221.571 65.8525 221.571V217.571ZM45.3597 219.568C36.9621 220.747 31.8443 221.307 29.8174 221.307V225.307C32.185 225.307 37.6141 224.695 45.9157 223.529L45.3597 219.568ZM29.8174 221.307C26.441 221.307 24.2618 220.388 22.8915 218.884C21.489 217.344 20.6113 214.839 20.6113 211.002H16.6113C16.6113 215.368 17.6013 219.016 19.9341 221.577C22.2992 224.174 25.723 225.307 29.8174 225.307V221.307ZM20.6113 211.002V134.757H16.6113V211.002H20.6113ZM20.6113 134.757C20.6113 130.946 21.8849 128.365 24.2383 126.651C26.7095 124.851 30.6599 123.793 36.4092 123.793V119.793C30.2931 119.793 25.3446 120.896 21.8832 123.417C18.304 126.024 16.6113 129.925 16.6113 134.757H20.6113ZM36.4092 123.793C42.4486 123.793 46.5449 124.67 49.0032 126.145L51.0612 122.715C47.6601 120.674 42.6744 119.793 36.4092 119.793V123.793ZM49.0684 126.182C51.0424 127.268 52.4267 129.761 52.4267 134.757H56.4267C56.4267 129.206 54.8814 124.814 50.996 122.677L49.0684 126.182ZM61.6777 380.828C44.9044 380.828 29.7606 375.016 16.1828 363.297L13.5691 366.325C27.8233 378.628 43.8807 384.828 61.6777 384.828V380.828ZM16.2683 363.375C11.6192 358.867 9.62498 354.811 9.62498 351.188H5.62498C5.62498 356.353 8.46476 361.38 13.4837 366.246L16.2683 363.375ZM9.62498 351.188C9.62498 349.043 11.0089 346.082 14.5857 342.219L11.6506 339.502C7.90323 343.549 5.62498 347.473 5.62498 351.188H9.62498ZM14.5324 342.275C23.6549 333.152 31.4405 329.018 37.9473 329.018V325.018C29.8056 325.018 21.0384 330.112 11.7039 339.446L14.5324 342.275ZM37.9473 329.018C42.0765 329.018 46.9659 331.222 52.6703 336.213L55.3043 333.203C49.2899 327.94 43.486 325.018 37.9473 325.018V329.018ZM52.7253 336.26C63.9273 345.371 74.9071 350.111 85.6279 350.111V346.111C76.1339 346.111 66.0199 341.917 55.2493 333.156L52.7253 336.26ZM85.6279 350.111C91.1889 350.111 96.5246 348.951 101.617 346.636L99.9614 342.995C95.3855 345.075 90.6138 346.111 85.6279 346.111V350.111ZM101.641 346.625C104.114 345.461 106.063 344.604 107.504 344.042C108.225 343.76 108.792 343.564 109.217 343.44C109.687 343.303 109.84 343.3 109.798 343.3V339.3C109.243 339.3 108.636 339.443 108.099 339.599C107.517 339.768 106.83 340.011 106.05 340.316C104.487 340.925 102.444 341.826 99.9375 343.006L101.641 346.625ZM109.798 343.3C111.237 343.3 111.976 343.703 112.403 344.199C112.879 344.751 113.291 345.789 113.291 347.672H117.291C117.291 345.306 116.788 343.159 115.433 341.587C114.029 339.958 112.021 339.3 109.798 339.3V343.3ZM113.291 347.672C113.291 349.127 112.921 351.094 112.075 353.631L115.87 354.896C116.782 352.16 117.291 349.732 117.291 347.672H113.291ZM112.075 353.631C111.292 355.981 109.673 358.861 107.099 362.292L110.299 364.692C112.999 361.092 114.895 357.82 115.87 354.896L112.075 353.631ZM107.091 362.303C104.735 365.491 101.736 368.427 98.0709 371.106L100.431 374.335C104.383 371.448 107.683 368.232 110.308 364.681L107.091 362.303ZM98.0408 371.128C94.6465 373.708 89.7753 375.964 83.315 377.831L84.4252 381.673C91.1485 379.731 96.5312 377.3 100.461 374.313L98.0408 371.128ZM83.276 377.842C76.9088 379.823 69.7162 380.828 61.6777 380.828V384.828C70.0455 384.828 77.6479 383.782 84.4642 381.662L83.276 377.842ZM140.999 106.17H28.0596V110.17H140.999V106.17ZM28.0596 106.17C24.7625 106.17 22.8124 105.721 21.8376 105.137L19.7796 108.567C21.7344 109.739 24.6184 110.17 28.0596 110.17V106.17ZM21.8376 105.137C21.1894 104.748 20.6113 103.951 20.6113 102.018H16.6113C16.6113 104.772 17.4981 107.198 19.7796 108.567L21.8376 105.137ZM20.6113 102.018C20.6113 100.884 20.9483 99.1918 21.7633 96.853C22.5677 94.5448 23.7915 91.7347 25.4539 88.4101L21.8762 86.6212C20.1694 90.0348 18.8663 93.0109 17.9861 95.5367C17.1166 98.0318 16.6113 100.221 16.6113 102.018H20.6113ZM25.4539 88.4101C28.7645 81.7887 32.1499 76.9692 35.566 73.8264L32.8578 70.8826C28.9497 74.4781 25.3038 79.766 21.8762 86.6212L25.4539 88.4101ZM35.5604 73.8315C38.3877 71.2501 43.2008 69.7402 50.4717 69.7402V65.7402C42.8011 65.7402 36.7744 67.3066 32.8634 70.8775L35.5604 73.8315ZM50.4717 69.7402H164.29V65.7402H50.4717V69.7402ZM164.29 69.7402C167.22 69.7402 169.046 70.3446 170.114 71.214C171.103 72.0192 171.738 73.2968 171.738 75.4307H175.738C175.738 72.4376 174.799 69.87 172.639 68.1117C170.557 66.4176 167.659 65.7402 164.29 65.7402V69.7402ZM171.738 75.4307C171.738 78.9602 170.148 83.3236 166.588 88.5932L169.902 90.8326C173.666 85.2623 175.738 80.1042 175.738 75.4307H171.738ZM166.581 88.6035C163.169 93.7218 159.119 98.2694 154.427 102.25L157.015 105.3C161.991 101.078 166.29 96.2509 169.909 90.8223L166.581 88.6035ZM154.471 102.214C151.261 104.782 146.84 106.17 140.999 106.17V110.17C147.463 110.17 152.856 108.628 156.97 105.337L154.471 102.214Z" fill="#686A77"/>
<ellipse cx="386.963" cy="385.585" rx="196.739" ry="24.458" fill="#C4C4C4" fill-opacity="0.3"/>
<path d="M161.995 261.517V266.484C161.995 273.051 166.267 278.855 172.538 280.806L206.293 291.311" stroke="black"/>
<ellipse cx="305.749" cy="285.53" rx="97.2837" ry="99.6106" fill="#00A3FF"/>
<ellipse cx="511.608" cy="285.53" rx="97.2837" ry="99.6106" fill="#00A3FF"/>
<ellipse cx="511.608" cy="285.53" rx="43.4302" ry="44.469" fill="#C4C4C4"/>
<ellipse cx="304.88" cy="285.53" rx="43.4302" ry="44.469" fill="#C4C4C4"/>
<path d="M403.033 297.092H414.325" stroke="black"/>
<path d="M172.418 229.054L151.785 239.617C146.604 242.27 144.93 248.869 148.22 253.67V253.67C152.764 260.299 162.945 258.799 165.384 251.141L172.418 229.054ZM172.418 229.054L198.772 151.779C200.154 147.73 203.958 145.007 208.237 145.007H304.446C308.624 145.007 312.361 142.41 313.818 138.494L326.344 104.828C327.801 100.912 331.538 98.3149 335.716 98.3149H463.989C466.41 98.3149 468.748 99.1928 470.57 100.786L515.691 140.224C518.953 143.076 523.682 143.502 527.401 141.279L642.019 72.7863C644.836 71.1029 648.413 73.1325 648.413 76.4141V76.4141C648.413 77.8669 647.667 79.2179 646.437 79.9915L521.163 158.793H680.655C684.336 158.793 687.719 160.815 689.463 164.056L723.224 226.836C724.006 228.292 724.416 229.919 724.416 231.572V273.306C724.416 278.829 719.939 283.306 714.416 283.306H614.103" stroke="black"/>
<path d="M647.11 128.99V136.494V141.645C647.11 144.485 649.412 146.786 652.251 146.786C655.091 146.786 657.393 144.482 657.393 141.643C657.393 138.801 659.697 136.494 662.539 136.494H667.229C670.567 136.494 673.677 134.802 675.489 132L677.732 128.532C679.621 125.612 682.861 123.849 686.338 123.849C689.325 123.849 692.163 122.546 694.11 120.281L698.94 114.662C701.789 111.347 705.943 109.44 710.315 109.44H719.118C726.602 109.44 732.941 103.923 733.974 96.5108L738.708 62.5554C739.02 60.3166 738.822 58.0362 738.129 55.8846L735.522 47.793C733.526 41.5945 727.757 37.3926 721.245 37.3926H713.986C711.803 37.3926 709.647 37.8688 707.668 38.7881L699.725 42.4768C694.43 44.9357 691.043 50.2433 691.043 56.0812V70.8021C691.043 75.9 686.911 80.0326 681.813 80.0326C676.715 80.0326 672.582 84.1653 672.582 89.2632V101.845C672.582 106.039 669.182 109.44 664.987 109.44H664.597C660.618 109.44 657.393 112.665 657.393 116.644V118.708C657.393 121.547 655.091 123.849 652.251 123.849C649.412 123.849 647.11 126.151 647.11 128.99Z" fill="#C4C4C4" stroke="#C4C4C4"/>
<path d="M142.968 286.319L145.538 282.321L147.139 279.831C148.597 277.561 147.966 274.499 145.728 272.991L144.93 272.453C143.133 271.243 140.727 271.739 139.556 273.561C138.385 275.384 135.979 275.88 134.182 274.669L129.338 271.405C126.889 269.755 123.849 269.317 121.069 270.215L118.851 270.932C115.662 271.962 112.175 271.46 109.366 269.567C107.013 267.982 104.167 267.362 101.4 267.831L95.7715 268.786C92.0667 269.414 88.2541 268.583 85.1035 266.46L77.8187 261.551C71.7703 257.476 63.7623 258.404 58.8416 263.751L43.9837 279.896C42.1028 281.94 40.822 284.483 40.2849 287.24L39.6165 290.671C38.4364 296.729 40.9922 302.942 46.0724 306.365L52.3641 310.605C53.8467 311.604 55.49 312.326 57.2167 312.737L63.7685 314.297C69.8193 315.738 76.0784 313.198 79.4654 307.928L82.9053 302.576C85.5245 298.5 90.9046 297.391 94.9221 300.098C98.9396 302.805 104.32 301.696 106.939 297.621L110.413 292.215C112.568 288.861 116.995 287.949 120.301 290.176L121.731 291.14C124.247 292.835 127.615 292.141 129.255 289.589L129.583 289.079C131.041 286.809 134.038 286.192 136.276 287.699C138.513 289.207 141.51 288.589 142.968 286.319Z" fill="#C4C4C4" stroke="#C4C4C4"/>
<path d="M467.812 139.671H341.728C331.136 139.671 323.88 128.991 327.783 119.144L341.627 84.2193C343.893 78.5014 349.42 74.7466 355.571 74.7466H453.968C460.119 74.7466 465.646 78.5014 467.913 84.2193L481.756 119.144C485.659 128.991 478.404 139.671 467.812 139.671Z" fill="#50CD89" stroke="#C4C4C4"/>
<path d="M415.193 176.136H650.585V201.928H612.8" stroke="black"/>
<ellipse cx="662.745" cy="22.7177" rx="11.2919" ry="14.6748" fill="#C4C4C4"/>
<ellipse cx="118.13" cy="251.289" rx="11.2919" ry="14.6748" fill="#C4C4C4"/>
<ellipse cx="735.708" cy="146.342" rx="11.2919" ry="14.6748" fill="#C4C4C4"/>
<ellipse cx="46.9047" cy="344.673" rx="11.2919" ry="14.6748" fill="#C4C4C4"/>
<path d="M165.757 275.465L194.603 165.108C196.328 158.507 202.292 153.901 209.115 153.901H267.743C283.34 153.901 288.577 174.751 274.83 182.121L235.699 203.101C233.349 204.361 231.378 206.225 229.987 208.5L184.262 283.334C182.416 286.355 179.131 288.198 175.59 288.198C168.933 288.198 164.074 281.905 165.757 275.465Z" fill="#50CD89"/>
<path d="M389.558 153.901H319.256C309.251 153.901 305.447 166.969 313.889 172.339L384.191 217.056C390.849 221.291 399.558 216.508 399.558 208.618V163.901C399.558 158.379 395.081 153.901 389.558 153.901Z" fill="#50CD89"/>
<path d="M403.033 181.174V171.906C403.033 166.383 407.51 161.906 413.033 161.906H653.216C657.759 161.906 661.443 165.589 661.443 170.133C661.443 174.676 657.759 178.359 653.216 178.359H445.989C444.583 178.359 443.194 178.655 441.911 179.229L417.111 190.304C410.496 193.259 403.033 188.418 403.033 181.174Z" fill="#50CD89"/>
<path d="M614.245 267.423L609.623 208.858C609.211 203.634 612.902 198.977 618.082 198.186L661.38 191.57C665.99 190.866 670.476 193.442 672.19 197.779L684.132 227.991C685.641 231.808 689.328 234.315 693.432 234.315H729.183C734.705 234.315 739.183 238.792 739.183 244.315V266.636C739.183 272.159 734.705 276.636 729.183 276.636H624.214C618.996 276.636 614.655 272.624 614.245 267.423Z" fill="#50CD89"/>
<path d="M309.276 230.531L313.508 249.83C314.332 253.586 318.656 255.359 321.879 253.263L338.183 242.658C342.203 240.043 346.979 244.694 344.473 248.783L333.826 266.148C331.865 269.348 333.613 273.529 337.269 274.38L356.799 278.924C361.439 280.003 361.439 286.61 356.799 287.689L337.269 292.233C333.613 293.084 331.865 297.265 333.826 300.465L344.473 317.83C346.979 321.919 342.203 326.57 338.183 323.955L321.879 313.35C318.656 311.254 314.332 313.027 313.508 316.783L309.276 336.082C308.242 340.796 301.519 340.796 300.485 336.082L296.252 316.783C295.429 313.027 291.104 311.254 287.881 313.35L271.578 323.955C267.557 326.57 262.781 321.919 265.288 317.83L275.934 300.465C277.896 297.265 276.147 293.084 272.492 292.233L252.962 287.689C248.322 286.61 248.322 280.003 252.962 278.924L272.492 274.38C276.147 273.529 277.896 269.348 275.934 266.148L265.288 248.783C262.781 244.694 267.557 240.043 271.578 242.658L287.881 253.263C291.104 255.359 295.429 253.586 296.252 249.83L300.485 230.531C301.519 225.816 308.242 225.816 309.276 230.531Z" fill="#C4C4C4" stroke="#A1A5B7"/>
<path d="M515.135 230.531L519.368 249.83C520.191 253.586 524.516 255.359 527.739 253.263L544.042 242.658C548.063 240.043 552.839 244.694 550.332 248.783L539.686 266.148C537.724 269.348 539.473 273.529 543.128 274.38L562.658 278.924C567.298 280.003 567.298 286.61 562.658 287.689L543.128 292.233C539.473 293.084 537.724 297.265 539.686 300.465L550.332 317.83C552.839 321.919 548.063 326.57 544.042 323.955L527.739 313.35C524.516 311.254 520.191 313.027 519.368 316.783L515.135 336.082C514.101 340.796 507.378 340.796 506.344 336.082L502.112 316.783C501.288 313.027 496.964 311.254 493.741 313.35L477.437 323.955C473.417 326.57 468.64 321.919 471.147 317.83L481.794 300.465C483.755 297.265 482.007 293.084 478.351 292.233L458.821 287.689C454.181 286.61 454.181 280.003 458.821 278.924L478.351 274.38C482.007 273.529 483.755 269.348 481.794 266.148L471.147 248.783C468.641 244.694 473.417 240.043 477.437 242.658L493.741 253.263C496.964 255.359 501.288 253.586 502.112 249.83L506.344 230.531C507.378 225.816 514.101 225.816 515.135 230.531Z" fill="#C4C4C4" stroke="#A1A5B7"/>
<path d="M326.964 283.751C326.964 295.766 317.455 305.486 305.749 305.486C294.043 305.486 284.534 295.766 284.534 283.751C284.534 271.736 294.043 262.017 305.749 262.017C317.455 262.017 326.964 271.736 326.964 283.751Z" fill="#C4C4C4" stroke="#A1A5B7"/>
<path d="M326.964 283.751C326.964 295.766 317.455 305.486 305.749 305.486C294.043 305.486 284.534 295.766 284.534 283.751C284.534 271.736 294.043 262.017 305.749 262.017C317.455 262.017 326.964 271.736 326.964 283.751Z" fill="#C4C4C4" stroke="#A1A5B7"/>
<path d="M532.823 283.751C532.823 295.766 523.314 305.486 511.608 305.486C499.902 305.486 490.393 295.766 490.393 283.751C490.393 271.736 499.902 262.017 511.608 262.017C523.314 262.017 532.823 271.736 532.823 283.751Z" fill="#C4C4C4" stroke="#A1A5B7"/>
<path d="M414.324 141.786V103.76C414.324 100.998 416.563 98.7598 419.324 98.7598H462.485C464.606 98.7598 466.496 100.098 467.2 102.098L480.597 140.125C481.743 143.378 479.33 146.786 475.881 146.786H419.324C416.563 146.786 414.324 144.548 414.324 141.786Z" stroke="#686A77"/>
<path d="M404.77 141.787V102.871C404.77 100.109 402.531 97.8706 399.77 97.8706H351.949C349.867 97.8706 348.003 99.1604 347.27 101.109L332.616 140.025C331.385 143.294 333.801 146.787 337.295 146.787H399.77C402.531 146.787 404.77 144.548 404.77 141.787Z" stroke="#686A77"/>
<path d="M408.5 164.543V296.543" stroke="#686A77"/>
<path d="M509.425 90.5857L503.495 55.0774L523.222 51.7832L494.848 3.29443" stroke="black"/>
<path d="M533 106.697L551.679 75.9227L568.776 86.3001L578.92 31.043" stroke="black"/>
<path d="M735.747 196.043L769.637 208.188L762.889 227.016L819.059 225.9" stroke="black"/>
</svg>
