<svg width="2149" height="1104" viewBox="0 0 2149 1104" fill="none" xmlns="http://www.w3.org/2000/svg">
<rect width="2149" height="1104" fill="white"/>
<path d="M701.094 647C671.894 647 647.094 641.6 626.694 630.8C606.694 620 591.294 606.2 580.494 589.4C569.694 572.2 563.894 554.4 563.094 536C562.694 532.4 563.694 529.6 566.094 527.6C568.494 525.6 571.494 524.6 575.094 524.6H586.494C589.694 524.6 592.494 525.4 594.894 527C597.694 528.6 599.894 532.4 601.494 538.4C605.894 555.6 613.094 569.6 623.094 580.4C633.494 591.2 645.494 599 659.094 603.8C672.694 608.6 686.694 611 701.094 611C720.694 611 738.494 607 754.494 599C770.894 591 783.894 579.2 793.494 563.6C803.094 548 807.894 529 807.894 506.6C807.894 485.8 803.094 468.2 793.494 453.8C783.894 439 770.894 427.8 754.494 420.2C738.494 412.2 720.694 408.2 701.094 408.2C686.294 408.2 674.094 410 664.494 413.6C654.894 417.2 646.894 421.4 640.494 426.2C634.094 431 628.294 435.2 623.094 438.8C617.894 442.4 612.094 444.2 605.694 444.2H594.894C591.294 444.2 588.094 443 585.294 440.6C582.494 437.8 581.294 434.6 581.694 431L599.694 234.8C600.094 230.4 601.294 227 603.294 224.6C605.694 222.2 608.894 221 612.894 221H808.494C812.494 221 815.694 222.2 818.094 224.6C820.494 227 821.694 230.2 821.694 234.2V243.8C821.694 247.8 820.494 251 818.094 253.4C815.694 255.8 812.494 257 808.494 257H636.294L623.694 392.6C628.094 389.8 636.494 385.8 648.894 380.6C661.294 375 678.694 372.2 701.094 372.2C721.094 372.2 739.694 375.2 756.894 381.2C774.494 386.8 789.894 395.4 803.094 407C816.694 418.2 827.094 432.2 834.294 449C841.894 465.4 845.694 484.6 845.694 506.6C845.694 537.8 839.094 563.8 825.894 584.6C813.094 605.4 795.694 621 773.694 631.4C752.094 641.8 727.894 647 701.094 647ZM1061.25 647C1034.05 647 1011.25 642.6 992.853 633.8C974.853 625 960.253 613 949.053 597.8C938.253 582.2 930.453 564.4 925.653 544.4C920.853 524.4 918.053 503.4 917.253 481.4C917.253 470.6 917.053 459.6 916.653 448.4C916.653 437.2 916.653 426 916.653 414.8C917.053 403.2 917.253 391.8 917.253 380.6C917.653 358.6 920.253 337.6 925.053 317.6C930.253 297.6 938.253 280 949.053 264.8C960.253 249.2 974.853 237 992.853 228.2C1011.25 219.4 1034.05 215 1061.25 215C1088.45 215 1111.05 219.4 1129.05 228.2C1147.45 237 1162.05 249.2 1172.85 264.8C1184.05 280 1192.05 297.6 1196.85 317.6C1202.05 337.6 1204.85 358.6 1205.25 380.6C1205.65 391.8 1205.85 403.2 1205.85 414.8C1205.85 426 1205.85 437.2 1205.85 448.4C1205.85 459.6 1205.65 470.6 1205.25 481.4C1204.85 503.4 1202.05 524.4 1196.85 544.4C1192.05 564.4 1184.05 582.2 1172.85 597.8C1162.05 613 1147.45 625 1129.05 633.8C1111.05 642.6 1088.45 647 1061.25 647ZM1061.25 611C1096.85 611 1123.25 599.2 1140.45 575.6C1157.65 552 1166.65 519.6 1167.45 478.4C1167.85 466.8 1168.05 456 1168.05 446C1168.05 435.6 1168.05 425.4 1168.05 415.4C1168.05 405 1167.85 394.4 1167.45 383.6C1166.65 343.2 1157.65 311 1140.45 287C1123.25 263 1096.85 251 1061.25 251C1026.05 251 999.653 263 982.053 287C964.853 311 955.853 343.2 955.053 383.6C955.053 394.4 954.853 405 954.453 415.4C954.453 425.4 954.453 435.6 954.453 446C954.853 456 955.053 466.8 955.053 478.4C955.853 519.6 964.853 552 982.053 575.6C999.653 599.2 1026.05 611 1061.25 611ZM1430.98 647C1403.78 647 1380.98 642.6 1362.58 633.8C1344.58 625 1329.98 613 1318.78 597.8C1307.98 582.2 1300.18 564.4 1295.38 544.4C1290.58 524.4 1287.78 503.4 1286.98 481.4C1286.98 470.6 1286.78 459.6 1286.38 448.4C1286.38 437.2 1286.38 426 1286.38 414.8C1286.78 403.2 1286.98 391.8 1286.98 380.6C1287.38 358.6 1289.98 337.6 1294.78 317.6C1299.98 297.6 1307.98 280 1318.78 264.8C1329.98 249.2 1344.58 237 1362.58 228.2C1380.98 219.4 1403.78 215 1430.98 215C1458.18 215 1480.78 219.4 1498.78 228.2C1517.18 237 1531.78 249.2 1542.58 264.8C1553.78 280 1561.78 297.6 1566.58 317.6C1571.78 337.6 1574.58 358.6 1574.98 380.6C1575.38 391.8 1575.58 403.2 1575.58 414.8C1575.58 426 1575.58 437.2 1575.58 448.4C1575.58 459.6 1575.38 470.6 1574.98 481.4C1574.58 503.4 1571.78 524.4 1566.58 544.4C1561.78 564.4 1553.78 582.2 1542.58 597.8C1531.78 613 1517.18 625 1498.78 633.8C1480.78 642.6 1458.18 647 1430.98 647ZM1430.98 611C1466.58 611 1492.98 599.2 1510.18 575.6C1527.38 552 1536.38 519.6 1537.18 478.4C1537.58 466.8 1537.78 456 1537.78 446C1537.78 435.6 1537.78 425.4 1537.78 415.4C1537.78 405 1537.58 394.4 1537.18 383.6C1536.38 343.2 1527.38 311 1510.18 287C1492.98 263 1466.58 251 1430.98 251C1395.78 251 1369.38 263 1351.78 287C1334.58 311 1325.58 343.2 1324.78 383.6C1324.78 394.4 1324.58 405 1324.18 415.4C1324.18 425.4 1324.18 435.6 1324.18 446C1324.58 456 1324.78 466.8 1324.78 478.4C1325.58 519.6 1334.58 552 1351.78 575.6C1369.38 599.2 1395.78 611 1430.98 611Z" fill="#A1A5B7" fill-opacity="0.1"/>
</svg>
