<svg width="2149" height="1104" viewBox="0 0 2149 1104" fill="none" xmlns="http://www.w3.org/2000/svg">
<rect width="2149" height="1104" fill="white"/>
<path d="M776.901 571C772.901 571 769.701 569.8 767.301 567.4C764.901 565 763.701 561.8 763.701 557.8V463H565.701C561.701 463 558.501 461.8 556.101 459.4C553.701 457 552.501 453.8 552.501 449.8V440.2C552.501 439.4 552.901 437.2 553.701 433.6C554.501 430 556.301 426.2 559.101 422.2L741.501 161.2C746.301 154.4 753.701 151 763.701 151H788.301C792.301 151 795.501 152.2 797.901 154.6C800.301 157 801.501 160.2 801.501 164.2V427H856.101C860.101 427 863.301 428.2 865.701 430.6C868.101 433 869.301 436.2 869.301 440.2V449.8C869.301 453.8 868.101 457 865.701 459.4C863.301 461.8 860.101 463 856.101 463H801.501V557.8C801.501 561.8 800.301 565 797.901 567.4C795.501 569.8 792.301 571 788.301 571H776.901ZM599.901 427H763.701V193.6L599.901 427ZM1074.94 577C1047.74 577 1024.94 572.6 1006.54 563.8C988.537 555 973.937 543 962.737 527.8C951.937 512.2 944.137 494.4 939.337 474.4C934.537 454.4 931.737 433.4 930.937 411.4C930.937 400.6 930.737 389.6 930.337 378.4C930.337 367.2 930.337 356 930.337 344.8C930.737 333.2 930.937 321.8 930.937 310.6C931.337 288.6 933.937 267.6 938.737 247.6C943.937 227.6 951.937 210 962.737 194.8C973.937 179.2 988.537 167 1006.54 158.2C1024.94 149.4 1047.74 145 1074.94 145C1102.14 145 1124.74 149.4 1142.74 158.2C1161.14 167 1175.74 179.2 1186.54 194.8C1197.74 210 1205.74 227.6 1210.54 247.6C1215.74 267.6 1218.54 288.6 1218.94 310.6C1219.34 321.8 1219.54 333.2 1219.54 344.8C1219.54 356 1219.54 367.2 1219.54 378.4C1219.54 389.6 1219.34 400.6 1218.94 411.4C1218.54 433.4 1215.74 454.4 1210.54 474.4C1205.74 494.4 1197.74 512.2 1186.54 527.8C1175.74 543 1161.14 555 1142.74 563.8C1124.74 572.6 1102.14 577 1074.94 577ZM1074.94 541C1110.54 541 1136.94 529.2 1154.14 505.6C1171.34 482 1180.34 449.6 1181.14 408.4C1181.54 396.8 1181.74 386 1181.74 376C1181.74 365.6 1181.74 355.4 1181.74 345.4C1181.74 335 1181.54 324.4 1181.14 313.6C1180.34 273.2 1171.34 241 1154.14 217C1136.94 193 1110.54 181 1074.94 181C1039.74 181 1013.34 193 995.737 217C978.537 241 969.537 273.2 968.737 313.6C968.737 324.4 968.537 335 968.137 345.4C968.137 355.4 968.137 365.6 968.137 376C968.537 386 968.737 396.8 968.737 408.4C969.537 449.6 978.537 482 995.737 505.6C1013.34 529.2 1039.74 541 1074.94 541ZM1503.46 571C1499.46 571 1496.26 569.8 1493.86 567.4C1491.46 565 1490.26 561.8 1490.26 557.8V463H1292.26C1288.26 463 1285.06 461.8 1282.66 459.4C1280.26 457 1279.06 453.8 1279.06 449.8V440.2C1279.06 439.4 1279.46 437.2 1280.26 433.6C1281.06 430 1282.86 426.2 1285.66 422.2L1468.06 161.2C1472.86 154.4 1480.26 151 1490.26 151H1514.86C1518.86 151 1522.06 152.2 1524.46 154.6C1526.86 157 1528.06 160.2 1528.06 164.2V427H1582.66C1586.66 427 1589.86 428.2 1592.26 430.6C1594.66 433 1595.86 436.2 1595.86 440.2V449.8C1595.86 453.8 1594.66 457 1592.26 459.4C1589.86 461.8 1586.66 463 1582.66 463H1528.06V557.8C1528.06 561.8 1526.86 565 1524.46 567.4C1522.06 569.8 1518.86 571 1514.86 571H1503.46ZM1326.46 427H1490.26V193.6L1326.46 427Z" fill="#FBFBFB"/>
</svg>
