<svg width="792" height="834" viewBox="0 0 792 834" fill="none" xmlns="http://www.w3.org/2000/svg">
<path fill-rule="evenodd" clip-rule="evenodd" d="M277.551 782.475V654.695C277.55 622.193 304.047 595.785 336.875 595.566H457.129C490.114 595.566 516.854 622.039 516.854 654.695V782.872C516.847 810.467 539.094 833.02 566.96 833.667H647.129C727.047 833.667 791.833 769.528 791.833 690.41V326.91C791.406 295.785 776.645 266.556 751.749 247.543L477.572 28.8877C429.539 -9.18458 361.258 -9.18458 313.226 28.8877L40.251 247.94C15.2607 266.876 0.474405 296.153 0.166626 327.307V690.41C0.166626 769.528 64.9531 833.667 144.871 833.667H225.04C253.598 833.667 276.749 810.748 276.749 782.475" fill="#150958"/>
</svg>
